<svg viewBox="0 0 24 24" xmlns="http://www.w3.org/2000/svg"><path d="M13.467 24h-2.935a1.73 1.73 0 01-1.729-1.728v-4.728l-4.099 2.365a1.75 1.75 0 01-2.363-.634L.872 16.728A1.706 1.706 0 01.7 15.413c.121-.443.407-.815.806-1.047L5.6 12 1.509 9.636a1.738 1.738 0 01-.808-1.049 1.708 1.708 0 01.174-1.318l1.465-2.54a1.75 1.75 0 012.358-.641l4.106 2.369V1.728A1.73 1.73 0 0110.533 0h2.935a1.73 1.73 0 011.729 1.728v4.728l4.099-2.365a1.75 1.75 0 012.363.634l1.469 2.547c.232.398.294.866.172 1.315a1.733 1.733 0 01-.806 1.047L18.4 12l4.091 2.364c.401.234.687.606.808 1.049.122.449.061.917-.174 1.318l-1.465 2.541a1.749 1.749 0 01-2.358.641l-4.106-2.369v4.728A1.73 1.73 0 0113.467 24z" fill="currentColor"/><path d="M12 0h-1.467a1.73 1.73 0 00-1.729 1.728v4.728L4.698 4.087a1.753 1.753 0 00-2.358.642L.875 7.269c-.234.401-.296.87-.174 1.318.121.443.407.815.808 1.049L5.6 12l-4.093 2.365a1.737 1.737 0 00-.806 1.047c-.122.449-.061.917.172 1.315l1.469 2.547a1.753 1.753 0 002.362.634l4.099-2.365v4.728A1.732 1.732 0 0010.533 24H12z" fill="currentColor"/></svg>